<svg xmlns="http://www.w3.org/2000/svg" xmlns:xlink="http://www.w3.org/1999/xlink" viewBox="0 0 215.78 186.34"><defs><radialGradient id="a" cx="157.01" cy="93.44" r="67.98" gradientUnits="userSpaceOnUse"><stop offset="0" stop-color="#cf5f04"/><stop offset="0.26" stop-color="#9e4d12"/><stop offset="0.52" stop-color="#733c1e"/><stop offset="0.53" stop-color="#723c1e"/><stop offset="0.83" stop-color="#512d20"/><stop offset="1" stop-color="#442821"/></radialGradient><radialGradient id="b" cx="80.01" cy="49.94" r="77.94" gradientUnits="userSpaceOnUse"><stop offset="0" stop-color="#cf5f04"/><stop offset="0.23" stop-color="#a84f0c"/><stop offset="0.59" stop-color="#723a17"/><stop offset="0.86" stop-color="#512d1e"/><stop offset="1" stop-color="#442821"/></radialGradient><radialGradient id="c" cx="94.26" cy="133.69" r="41.04" xlink:href="#a"/><radialGradient id="d" cx="154.89" cy="24.81" r="26.09" gradientUnits="userSpaceOnUse"><stop offset="0" stop-color="#f0d3df"/><stop offset="0.17" stop-color="#f0ccdc"/><stop offset="0.42" stop-color="#f1bad3"/><stop offset="0.71" stop-color="#f19bc5"/><stop offset="1" stop-color="#f276b3"/></radialGradient><radialGradient id="e" cx="167.64" cy="36.81" r="20.46" gradientUnits="userSpaceOnUse"><stop offset="0" stop-color="#f0d3df"/><stop offset="1" stop-color="#f276b3"/></radialGradient><radialGradient id="f" cx="37.89" cy="175.56" r="31.58" xlink:href="#e"/><radialGradient id="g" cx="76.89" cy="168.44" r="26.52" gradientUnits="userSpaceOnUse"><stop offset="0.43" stop-color="#f0d3df"/><stop offset="1" stop-color="#f276b3"/></radialGradient><radialGradient id="h" cx="47.26" cy="147.44" r="32.85" xlink:href="#e"/></defs><path fill="#fff" d="M195.91,47.19l-5.16-4.26a5,5,0,0,0-2.28-1.07,4.23,4.23,0,0,0-.94-.1,5,5,0,0,0-2.24.53c-.15.07-2.27,1-13.3,2.34-2.86.35-6.32.73-10.5,1.14.27-.58.52-1.16.77-1.76a5,5,0,0,0-.52-4.82L150.8,23.54a5,5,0,0,0-4.12-2.15,5.08,5.08,0,0,0-2.79.84l-1.8,1.21a5,5,0,0,0-1.91,6L146.94,47c-9.12.72-20.38,1.49-34.27,2.27l-3.3.19a5,5,0,0,0-1.49.31A5.33,5.33,0,0,0,106,51a1.62,1.62,0,0,0-.25.28,6.51,6.51,0,0,0-.43.6s0,0,0,0a4.91,4.91,0,0,0-.48,1h0A5,5,0,0,0,106.06,58a3.88,3.88,0,0,0,.42.39L109,60.49l3.38,2.75a5.32,5.32,0,0,0,1.12.68,5,5,0,0,0,2,.44,4.73,4.73,0,0,0,1.09-.12c1.43-.31,3-.61,4.64-.9s3.51-.55,5.49-.81c4.33-.56,9.42-1.08,15.51-1.57a66.58,66.58,0,0,1-2.52,12.42c-4,12.73-12,24-23.45,33.12a90,90,0,0,1-10.83,7.4,5.1,5.1,0,0,0-2.17,2.6,5.58,5.58,0,0,0-.18.58,5,5,0,0,0,.68,3.89l1.1,1.7a5,5,0,0,0,4.22,2.31,5.07,5.07,0,0,0,2.07-.45,3.59,3.59,0,0,0,.34-.17c9.32-5.09,16.74-10.2,22.76-15.9l.28-.27c.21-.19.41-.39.61-.59l.34-.33c.37-.36.73-.73,1.09-1.1l.3-.31c.38-.4.76-.8,1.12-1.21l.52-.57c.33-.37.66-.75,1-1.13.46-.53.9-1.07,1.34-1.62a4.39,4.39,0,0,0-.13.52,4.67,4.67,0,0,0-.08.52h0a5.08,5.08,0,0,0,.69,3.08,4.76,4.76,0,0,0,.31.47l.22.27c.53.6,1,1.21,1.56,1.82l.06.07c1.62,1.92,3.16,3.85,4.51,5.66l1.06,1.43c.09.13.19.26.27.39h0c1.07,1.5,2,2.88,2.68,4.06a5.94,5.94,0,0,0,3.28,2.8,4.44,4.44,0,0,0,.89.21,2.6,2.6,0,0,0,.39,0l.45,0a5.76,5.76,0,0,0,4.33-2c.24-.24.48-.5.71-.77a8.14,8.14,0,0,0,.54-.63,10.67,10.67,0,0,0,.69-.9h0l.13-.18.27-.38.41-.6c.4-.59.79-1.24,1.18-1.92.12-.2.23-.4.34-.61s.24-.42.35-.63.28-.53.41-.81h0q.26-.49.51-1t.51-1.08c.19-.41.38-.84.57-1.27s.31-.7.46-1.07c.25-.58.49-1.18.73-1.8l0-.08c.19-.47.37-1,.56-1.45s.39-1.06.59-1.61h0q1.74-4.86,3.5-11c0-.13.08-.27.11-.4.16-.59.33-1.19.5-1.79s.33-1.2.49-1.81.25-.93.37-1.4c.05-.18.1-.36.14-.55.21-.79.42-1.59.62-2.41.28-1.11.56-2.24.84-3.4h0c.19-.77.38-1.56.57-2.35.33-1.31.4-1.58,2.07-2.76a6,6,0,0,0,2.6-4.17A6.14,6.14,0,0,0,180.57,67l-.07-.09-5-5.2a5.08,5.08,0,0,0-3.63-1.54h-.33a5,5,0,0,0-3.62,1.91l-2.47,3.13-8.38,1.2a19.12,19.12,0,0,1,1.06-2.76l.14-.13A5.9,5.9,0,0,0,160,59.66l33-2.34.22,0a5.56,5.56,0,0,0,4.92-4A5.73,5.73,0,0,0,195.91,47.19ZM152,81.61h.3a5.16,5.16,0,0,0,1.94-.38c1.42-.59,3.68-1.09,8.1-1.73-2.56,10.75-4.61,17.27-7,22l-5.8-4a5.05,5.05,0,0,0-5.84.06A77.47,77.47,0,0,0,152,81.61Z"/><path fill="#fff" d="M140.19,139.27v1.87a4.89,4.89,0,0,1,0,.54v0a2.5,2.5,0,0,1-.06.38,4.37,4.37,0,0,1-.12.49c0,.12-.08.24-.13.36a1.07,1.07,0,0,1-.07.19,5.13,5.13,0,0,1-.34.66c0,.06-.07.13-.11.18a5.43,5.43,0,0,1-.42.53,4.72,4.72,0,0,1-.68.66,4,4,0,0,1-.77.48,4.83,4.83,0,0,1-1.77.56l-4.26.51-5.2.62-11.65,1.4a3.82,3.82,0,0,1-.61,0,5.08,5.08,0,0,1-3.89-1.81l-7.16-8.46-.85-1-.34-.4-1.19-1.4L91,124.44v17.47c0,8.91-.12,11.61-.64,14.44l0,.12c-.84,3.91-3.67,5.29-5.84,5.29a6,6,0,0,1-4.87-2.56,8.83,8.83,0,0,1-.61-.87l-2.26-3.91h0l-2.2-3.8A5.1,5.1,0,0,1,74,147a5,5,0,0,1,1-2.18,4,4,0,0,0,.28-.8,6.67,6.67,0,0,0,.19-.77A26.16,26.16,0,0,0,76,138V127a88.83,88.83,0,0,1-9.21,8.22l-.76.58a109.1,109.1,0,0,1-9.66,6.53c-.73.44-1.47.87-2.23,1.31-2.39,1.37-4.91,2.73-7.59,4.08-3,1.5-6.1,3-9.45,4.48a5.18,5.18,0,0,1-2.08.44,5.07,5.07,0,0,1-4.56-2.82L29.56,148a5.1,5.1,0,0,1,2.07-6.74A147.29,147.29,0,0,0,59,122.19a7.26,7.26,0,0,1-1.68-2l-4-6.44-.33-.52a5.08,5.08,0,0,1-.07-5.29c.46-.79.82-1.4.73-5l0-2.3L53.33,89A29.82,29.82,0,0,0,52,81.21c-1.43.23-2.56.43-3.32.59a5.89,5.89,0,0,1-1,.1,5.15,5.15,0,0,1-3.17-1.1L43,79.65l-3.53-2.81-.84-.66a5.09,5.09,0,0,1-1.72-5.47,2,2,0,0,1,.12-.34s0,0,0,0a3.6,3.6,0,0,1,.42-.83,1.18,1.18,0,0,1,.11-.19,3.8,3.8,0,0,1,.29-.38,3.11,3.11,0,0,1,.29-.33l.15-.15a3.22,3.22,0,0,1,.28-.24l.24-.18c.12-.09.25-.17.38-.25a.42.42,0,0,1,.13-.07,2.21,2.21,0,0,1,.34-.18l.39-.16a5.12,5.12,0,0,1,1.3-.29L50,66.34l17.29-1.5,8.59-.74q0-1-.09-1.8l0-.42,0-.51c0-.35-.06-.68-.08-1s-.06-.56-.09-.82,0-.27,0-.4c-.06-.49-.12-.94-.19-1.35a13.39,13.39,0,0,0-1.54-4.59,5.09,5.09,0,0,1-.46-3.86,4.66,4.66,0,0,1,.47-1.13,2,2,0,0,1,.11-.2,3.8,3.8,0,0,1,.42-.57,3.32,3.32,0,0,1,.26-.28.07.07,0,0,1,0,0l.1-.1a5.41,5.41,0,0,1,.75-.59l1.54-1a5,5,0,0,1,1.33-.6,4.9,4.9,0,0,1,1.43-.21,5.13,5.13,0,0,1,3.09,1l7.45,5.67.07,0a6,6,0,0,1,2.15,6.41,7.46,7.46,0,0,1-.73,1.72l-.08.12A3.85,3.85,0,0,0,91.39,61c0,.14,0,.3,0,.47l0,.26c0,.18,0,.38,0,.6s0,.32,0,.5c1.65-.17,3.22-.33,4.7-.5l1-.11,1-.11c2.06-.24,4-.48,5.69-.73l1-.14c1.62-.23,3.11-.47,4.48-.72,2-.37,3.79-.74,5.33-1.14,1.36-.35,2.54-.71,3.59-1.09a5.08,5.08,0,0,1,4.62.58,4.81,4.81,0,0,1,.52.4l3.71,3.29,1.24,1.1c2.89,2.61,2.57,5.22,2.12,6.55s-1.79,3.59-5.66,3.89l-9,.76,1.27,1a6.07,6.07,0,0,1,2.34,4.94,6.17,6.17,0,0,1-2.72,4.8,2.81,2.81,0,0,0-.27.21,12.86,12.86,0,0,0-.73,3.38l-1.86,13.49.73.77a7.23,7.23,0,0,1,2.07,3.08,5.46,5.46,0,0,1,0,3.5c-.37,1.07-1.64,3.58-5.58,3.89l-5.94.52-3.24.29,1.78,1.8h0l7.89,8,3,3c2.63,2.58,6.45,5.25,20.27,6.54l1.05.09a5,5,0,0,1,1.29.28l.3.13a2.16,2.16,0,0,1,.48.24,2,2,0,0,1,.31.19,4.2,4.2,0,0,1,.49.37,5.77,5.77,0,0,1,.44.42A5.14,5.14,0,0,1,140.19,139.27Z"/><path d="M84.53,157.51c-.66,0-1.27-.46-1.86-1.41l-4.41-7.61a.86.86,0,0,1,.09-1c1.16-1.36,1.89-5,1.89-9.57V115.46c-10.59,14-23,23.07-44.89,32.83a.86.86,0,0,1-1.11-.4l-.88-1.76a.85.85,0,0,1,.35-1.12c17.57-9.81,30.27-20,39.8-32l-9.17.76a20,20,0,0,1-.23,3.66c-.27,1.6-1.15,1.78-1.52,1.78A1.94,1.94,0,0,1,61,118l-4.39-7a.84.84,0,0,1,0-.88c1-1.69,1.42-3.14,1.31-7.25l-.33-14a31.84,31.84,0,0,0-1.91-10,.84.84,0,0,1,.4-1.09L57.61,77a.85.85,0,0,1,1.11.33l4,6.67,17.52-2.26V73.54c-14.57,1.34-28.34,3.25-32.42,4.09h-.17a.87.87,0,0,1-.53-.18L41.3,72.84a.85.85,0,0,1,.45-1.51L80.23,68c-.14-9.48-.77-13.32-2.75-16.85A.86.86,0,0,1,77.77,50l1.54-1a.84.84,0,0,1,.46-.13.87.87,0,0,1,.51.17l7.37,5.61a1.85,1.85,0,0,1,.44,2.75c-.78,1.27-1.18,3.14-1.3,10.08,17.59-1.64,26.78-3.12,32.61-5.25a.71.71,0,0,1,.29,0,.86.86,0,0,1,.57.21l4.95,4.4c.36.33,1.22,1.1.91,2s-1.47,1-2,1L86.78,73v8.16l17.58-2.05,2.86-4.19a.87.87,0,0,1,.57-.36h.13a.91.91,0,0,1,.53.18l5.61,4.4a1.89,1.89,0,0,1,.8,1.52,1.94,1.94,0,0,1-.94,1.49c-1.3,1-2.07,1.73-2.74,6.47L109,104.11l2.25,2.34c.59.54,1.29,1.32,1,2.16s-1.45,1-1.88,1l-18.21,1.6,19,19.28c4,3.95,9.48,6.65,24,7.89a.84.84,0,0,1,.78.84v1.87a.85.85,0,0,1-.75.85l-21.12,2.53H114a.87.87,0,0,1-.65-.3L86.78,112.82V141.9c0,8.61-.11,11.16-.57,13.68C85.85,157.26,85,157.51,84.53,157.51ZM64.32,108.2l15.92-1.5V99.17a94.27,94.27,0,0,0-11.07,1.66l-.18,0a.85.85,0,0,1-.55-.2L64,96.85Zm22.46-2L103,104.51l1.92-19.72-18.1,2v6.44A44.12,44.12,0,0,0,98,91a.83.83,0,0,1,.87.19l3.29,3.19c.33.29,1.26,1.13.94,2.07s-1.51,1-1.9,1L86.78,98.69ZM64,95.29a.91.91,0,0,1,.33-.1l15.94-1.36v-6.4L63.81,89.32Z"/><path d="M109.15,120.72a.8.8,0,0,1-.65-.35l-1.1-1.71a.8.8,0,0,1-.11-.6.77.77,0,0,1,.37-.49c18.17-10.61,30.68-25.45,36.18-42.92a66.75,66.75,0,0,0,3-18.3c-14.51,1-24.12,2.2-31.08,3.74l-.16,0a.74.74,0,0,1-.49-.18l-5.93-4.81a.8.8,0,0,1-.24-.85.78.78,0,0,1,.69-.53c51.62-2.85,73.92-5.82,77.57-7.65a.85.85,0,0,1,.35-.08.74.74,0,0,1,.49.18l5.22,4.31c.25.2,1.07.83.84,1.66-.1.35-.41.8-1.34.92l-39.58,2.8,2.13,2.32a1.51,1.51,0,0,1,0,2.28c-1,1-1.44,1.83-4.26,11.06l16.74-2.4,3.52-4.47a.76.76,0,0,1,.58-.29h0a.78.78,0,0,1,.56.24l4.92,5.12a2.08,2.08,0,0,1,.65,1.55,1.89,1.89,0,0,1-.86,1.23c-2.49,1.75-3.14,2.88-3.71,5.17-5.23,22.13-10.2,35.26-15.16,40.11a1.68,1.68,0,0,1-1.21.66,1.52,1.52,0,0,1-1.31-.93,107.52,107.52,0,0,0-10.65-14.13.76.76,0,0,1,0-1l1-1.3a.77.77,0,0,1,.62-.31.82.82,0,0,1,.44.14l9.59,6.68c4.17-6.2,7-14.56,11.15-33.13-9.25,1.15-12.88,1.82-15.27,2.82a.73.73,0,0,1-.3.06.83.83,0,0,1-.47-.16l-2.14-1.65c-7.1,20.93-17.72,32.8-40.16,45.06A.75.75,0,0,1,109.15,120.72ZM153.53,49.8c-.6,0-1.08-.4-1.43-1.19L144.15,27.9a.79.79,0,0,1,.3-.93l1.81-1.2a.75.75,0,0,1,.43-.13.76.76,0,0,1,.63.33l10.94,15.66a.78.78,0,0,1,.08.74A37.36,37.36,0,0,1,155,48.82,1.89,1.89,0,0,1,153.53,49.8Z"/><path fill="url(#a)" d="M212.57,123.54c.67-.28.78-.68.79-.9s-.08-.62-.74-1c-.26-.12-.35-.26-.35-.33s.09-.21.35-.34c.66-.32.75-.73.74-1s-.12-.62-.79-.89c-.28-.11-.38-.24-.39-.32s.09-.22.34-.36c.64-.36.7-.77.68-1s-.16-.61-.85-.84c-.28-.09-.39-.22-.4-.29s.07-.22.32-.39c.61-.39.64-.81.61-1s-.2-.61-.9-.79c-.28-.08-.41-.2-.42-.27s.05-.23.29-.4c.59-.43.6-.85.55-1.06s-.24-.6-1-.74c-.29,0-.41-.16-.43-.23s0-.24.26-.42c.55-.48.54-.9.48-1.1s-.27-.57-1-.68c-.3,0-.43-.13-.45-.2s0-.24.24-.44c.52-.5.48-.92.4-1.12s-.3-.56-1-.61c-.29,0-.43-.11-.45-.18s0-.24.2-.45c.5-.54.43-1,.34-1.15s-.34-.53-1.07-.54c-.29,0-.44-.09-.47-.16s0-.22.19-.46a1.07,1.07,0,0,0,.26-1.17c-.1-.19-.37-.5-1.1-.46-.3,0-.44-.06-.48-.13s0-.23.15-.47a1,1,0,0,0,.19-1.18c-.11-.19-.41-.49-1.13-.41-.29,0-.44,0-.48-.09s0-.22.12-.48a1.05,1.05,0,0,0,.12-1.19c-.13-.18-.43-.46-1.16-.33-.29,0-.44,0-.49-.07s0-.22.09-.48c.35-.64.18-1,0-1.2a1,1,0,0,0-1.16-.25c-.29.07-.44,0-.5,0s-.06-.22.06-.49a1,1,0,0,0,0-1.19c-.14-.17-.48-.41-1.18-.19-.28.09-.44.06-.5,0s-.07-.22,0-.49a.94.94,0,0,0-1.3-1.31c-.27.11-.44.09-.49,0s-.09-.22,0-.5c.22-.69,0-1-.19-1.18a1,1,0,0,0-1.2,0c-.26.11-.43.1-.48,0s-.11-.21,0-.49a1.06,1.06,0,0,0-.26-1.17,1,1,0,0,0-1.19,0c-.27.14-.42.14-.49.1s-.11-.2-.06-.5a1.07,1.07,0,0,0-.33-1.15,1.05,1.05,0,0,0-1.19.12c-.26.15-.42.16-.48.12s-.13-.2-.1-.48c.09-.73-.21-1-.4-1.13a1.05,1.05,0,0,0-1.18.18c-.24.18-.41.2-.47.16s-.14-.18-.13-.48c0-.73-.27-1-.47-1.1a1.06,1.06,0,0,0-1.16.26c-.24.19-.4.22-.46.19s-.16-.18-.16-.48c0-.72-.35-1-.54-1.06s-.62-.16-1.15.34c-.22.2-.37.23-.45.2s-.16-.16-.18-.46c-.05-.72-.4-1-.61-1s-.62-.12-1.13.41c-.2.22-.35.26-.43.24s-.17-.15-.21-.45c-.1-.72-.46-.93-.67-1s-.62-.08-1.1.47c-.19.23-.34.29-.42.27s-.18-.14-.24-.43c-.14-.71-.51-.9-.73-1s-.63,0-1.06.54c-.18.24-.33.31-.4.3s-.19-.14-.27-.42c-.18-.71-.58-.87-.79-.9s-.63,0-1,.61c-.16.25-.31.33-.38.32s-.2-.13-.29-.4a1.78,1.78,0,0,0-.23-.46c-.28,1.16-.56,2.3-.84,3.41a36.56,36.56,0,0,1,10,2.4l-.8,1.93a33.82,33.82,0,0,0-9.72-2.28l-.24.91q-.74,2.82-1.47,5.4a5.8,5.8,0,0,1-1.39,11.43,5.16,5.16,0,0,1-.79-.06,5.43,5.43,0,0,1-1.33-.35c-.4,1.1-.79,2.14-1.18,3.14v0a2.44,2.44,0,0,1-.75,1.78c-.67,1.62-1.35,3.09-2,4.43a8.61,8.61,0,0,1,1.49-1l2.53,5.76a.67.67,0,0,0-.14.11l-4.3-4.11c-.22.43-.45.85-.68,1.25l4,3.84-.08.12-5.13-2c-.27.41-.54.79-.82,1.16l5.44,2.17a.5.5,0,0,0,0,.12h-6.3a9.42,9.42,0,0,1,.19-1.4,17.42,17.42,0,0,1-1.25,1.4,5.76,5.76,0,0,1-4.33,2,5.27,5.27,0,0,1-1.73-.28,5.8,5.8,0,0,1-11.45-.35,5.55,5.55,0,0,1,0-.72c0-.22,0-.44,0-.65a5.8,5.8,0,0,1,5.5-5.14c-.85-1.18-1.79-2.44-2.8-3.72a2.44,2.44,0,0,1-2,1,2.49,2.49,0,0,1-2.49-2.5,2.77,2.77,0,0,1,0-.42,2.58,2.58,0,0,1,1.4-1.85q-.79-.95-1.62-1.89l-.22-.27a4.76,4.76,0,0,1-.31-.47c-.38.74-.73,1.5-1.06,2.27l-2-.78a37.21,37.21,0,0,1,2.34-4.58,4.68,4.68,0,0,1,.21-1,68.61,68.61,0,0,1-6.58,7.13,1.41,1.41,0,0,0,.17.18c.21.2.26.36.23.44s-.15.17-.45.2c-.72.11-.92.47-1,.68s-.08.62.48,1.1c.22.18.29.34.27.42s-.15.18-.44.23c-.71.14-.9.52-1,.74s0,.63.55,1.06c.24.17.31.32.29.4s-.13.19-.42.27c-.7.18-.86.57-.9.79s0,.63.62,1c.24.17.32.31.31.39s-.12.2-.4.29c-.69.23-.83.63-.85.84s0,.63.67,1c.27.14.35.29.35.36s-.11.21-.39.32c-.67.27-.78.68-.79.89s.08.63.74,1c.26.13.36.26.36.34s-.1.21-.36.33c-.66.32-.74.73-.74,1s.12.62.79.9c.28.11.38.24.39.31s-.08.22-.35.37c-.63.35-.69.77-.67,1s.16.61.85.84c.28.1.39.22.4.3s-.07.22-.31.38c-.62.4-.65.82-.62,1s.2.6.9.79c.29.07.4.19.42.27s0,.22-.29.4c-.59.43-.59.85-.55,1.06s.24.58,1,.73c.29.06.42.17.44.24s-.05.23-.27.42c-.56.47-.54.89-.48,1.1s.27.57,1,.66c.3.05.43.15.45.22s0,.23-.23.43l0,0,1.05.09a5,5,0,0,1,1.29.28,5.14,5.14,0,0,1,2,1.35l1.57-.63a35.25,35.25,0,0,0,6.8,10.28l-1.49,1.48a36.7,36.7,0,0,1-5.52-7.45v1.65a4.72,4.72,0,0,1-.34,1.8,1.07,1.07,0,0,1-.07.19,4.82,4.82,0,0,1-.87,1.37,1,1,0,0,0,.56.18,1.45,1.45,0,0,0,.4,0c.3,0,.45,0,.5.07s0,.22-.1.48a1.06,1.06,0,0,0-.05,1.17l0,0a.81.81,0,0,0,.61.31,2,2,0,0,0,.56-.05c.28-.07.44,0,.48,0s.07.22,0,.49a1,1,0,0,0,0,1.2c.14.16.49.4,1.19.18.28-.09.43-.05.49,0s.08.22,0,.5c-.27.68-.05,1,.11,1.19a1,1,0,0,0,1.19.11c.28-.11.44-.08.5,0s.09.21,0,.49a1.06,1.06,0,0,0,.18,1.19c.16.14.53.33,1.2,0,.27-.12.42-.11.49-.06s.1.21,0,.49c-.17.71.09,1,.26,1.17s.55.3,1.2,0c.25-.14.42-.13.48-.09s.11.2.07.49c-.13.72.15,1,.33,1.15s.57.27,1.18-.11c.25-.16.42-.17.49-.13s.12.19.08.49c-.08.72.22,1,.41,1.13s.58.23,1.18-.2c.24-.17.41-.18.48-.15s.13.19.12.48c0,.73.27,1,.47,1.1s.6.2,1.17-.26c.23-.18.39-.21.46-.18s.15.18.15.47c0,.73.35,1,.54,1.07a1.06,1.06,0,0,0,1.15-.34c.22-.2.38-.23.45-.21s.16.17.18.46c.05.73.41,1,.61,1a1.07,1.07,0,0,0,1.12-.42c.21-.21.37-.26.44-.23s.17.15.21.45c.1.72.46.92.67,1s.63.07,1.1-.49c.19-.22.34-.28.42-.26s.18.15.23.44c.15.71.53.9.74.94s.62.05,1.06-.55c.18-.23.33-.3.4-.28s.19.13.27.42c.19.7.58.86.79.9s.63,0,1-.62c.17-.24.32-.31.39-.31s.2.12.29.4c.23.69.63.83.84.85s.64,0,1-.68c.15-.26.3-.34.37-.34s.2.11.31.39c.28.67.68.78.9.79s.62-.09.94-.74c.13-.27.27-.36.34-.36s.21.09.34.36c.31.63.7.74.92.74h0c.21,0,.61-.12.89-.79.11-.28.24-.38.32-.39s.21.08.36.34c.36.64.77.7,1,.68s.6-.16.84-.85c.09-.28.22-.39.29-.4s.22.07.38.31c.4.62.82.65,1,.62s.61-.2.79-.9c.08-.29.19-.41.27-.42s.22,0,.4.28c.43.59.85.6,1.06.55s.59-.23.73-.94c.06-.29.17-.42.24-.44s.23,0,.42.26c.48.56.89.55,1.1.49s.57-.27.67-1c0-.3.14-.43.21-.45s.23,0,.43.23a1.08,1.08,0,0,0,1.13.42c.21-.08.56-.31.61-1,0-.29.11-.43.18-.46s.23,0,.45.21a1.06,1.06,0,0,0,1.15.34c.19-.09.53-.34.54-1.07,0-.29.09-.44.16-.47s.22,0,.46.18c.56.46,1,.36,1.16.26s.51-.37.47-1.1c0-.29.06-.43.13-.48s.23,0,.47.15c.59.43,1,.31,1.18.2s.49-.41.4-1.13c0-.3,0-.45.1-.49s.22,0,.48.13c.62.38,1,.24,1.19.11a1,1,0,0,0,.33-1.14c0-.3,0-.45.06-.5s.22,0,.49.09c.64.34,1,.18,1.19,0s.43-.46.26-1.17c-.07-.28,0-.44,0-.49s.22-.06.48.06c.67.3,1,.11,1.2,0s.41-.49.19-1.19c-.09-.28-.06-.44,0-.49s.22-.08.49,0a1,1,0,0,0,1.19-.11c.16-.15.37-.51.11-1.19-.1-.28-.08-.44,0-.5s.22-.09.5,0a.93.93,0,0,0,1.21-1.38c-.12-.27-.11-.43-.06-.49s.21-.1.5,0a1,1,0,0,0,1.16-.26c.14-.17.31-.55,0-1.2-.13-.26-.13-.42-.09-.48s.2-.11.49-.07c.73.13,1-.15,1.16-.33a1.05,1.05,0,0,0-.12-1.19c-.16-.25-.17-.41-.12-.48s.19-.13.48-.09c.73.08,1-.22,1.13-.4a1,1,0,0,0-.19-1.18c-.17-.24-.19-.41-.15-.48s.18-.13.48-.12c.73,0,1-.28,1.1-.48a1.06,1.06,0,0,0-.26-1.16c-.19-.23-.22-.39-.19-.46s.18-.15.47-.16c.73,0,1-.34,1.07-.54s.16-.61-.34-1.15c-.2-.21-.23-.37-.2-.44s.16-.16.45-.19c.73-.05,1-.4,1-.6s.12-.62-.4-1.13c-.22-.2-.27-.36-.24-.43s.15-.17.45-.22c.72-.09.93-.46,1-.66s.07-.63-.48-1.1c-.22-.19-.28-.34-.26-.42s.14-.18.43-.24c.71-.15.9-.52,1-.73s0-.63-.55-1.06c-.24-.18-.3-.33-.29-.4s.14-.2.42-.27c.7-.19.86-.58.9-.79s0-.63-.61-1c-.25-.16-.33-.3-.32-.38s.12-.2.4-.3c.69-.23.83-.62.85-.84s0-.63-.68-1c-.25-.15-.34-.29-.34-.37S212.29,123.65,212.57,123.54Zm-74.72-15.3,2,.78a34.89,34.89,0,0,0-2.24,11.69h-2.09A36.9,36.9,0,0,1,137.85,108.24Zm.09,26.46a36.69,36.69,0,0,1-2.46-12.61h2.09a34.66,34.66,0,0,0,2.31,11.82Zm6.64.53A2.53,2.53,0,0,1,142.1,133a2.53,2.53,0,0,1,0-.28,2.49,2.49,0,0,1,4.47-1.52,2.59,2.59,0,0,1,.51,1.27,2.09,2.09,0,0,1,0,.25A2.5,2.5,0,0,1,144.58,135.23Zm54.88-39.32a37.06,37.06,0,0,1,7.17,10.92l-1.95.79A34.76,34.76,0,0,0,198,97.38ZM176,119.24l-.1-.15,4.48-4.4a10.16,10.16,0,0,1,1.45,2.19Zm6.34-1.08a9.33,9.33,0,0,1,.49,2.48l-6.3,0a.68.68,0,0,0,0-.14Zm-7.4,0-.18-.12,2.4-5.82a10.22,10.22,0,0,1,2.26,1.53Zm4.6,10.78a9.63,9.63,0,0,1-2.16,1.51l-2.55-5.76.15-.1ZM176.16,131a10.25,10.25,0,0,1-2.66.57l-.09-6.3a.73.73,0,0,0,.2,0Zm1.07,2.42a2.53,2.53,0,0,1,1.09-.25l.32,0a2.5,2.5,0,0,1,1.72,3.92,2.46,2.46,0,0,1-2,1.06,2.5,2.5,0,0,1-1.09-4.75Zm3.29-5.49L176,123.56l.08-.13,5.85,2.33A10.46,10.46,0,0,1,180.52,127.91Zm-4-5.75,0-.13h6.29a9.64,9.64,0,0,1-.46,2.46Zm7.78,11.28a5.31,5.31,0,0,1,1.08-.86,5.79,5.79,0,0,1,8.1,7.74,5.45,5.45,0,0,1-.8,1.12,5.79,5.79,0,1,1-8.38-8Zm2.54-15.38a2.49,2.49,0,0,1-2-.93,2.52,2.52,0,0,1-.53-1.28,1.37,1.37,0,0,1,0-.29,2.5,2.5,0,0,1,2.5-2.5,2.44,2.44,0,0,1,2,1,2.37,2.37,0,0,1,.5,1.27,1.93,1.93,0,0,1,0,.24A2.49,2.49,0,0,1,186.87,118.06Zm2.39,9.28a2.49,2.49,0,0,1-2.5,2.5,2.5,2.5,0,0,1-2.5-2.5,3,3,0,0,1,.07-.61,2.56,2.56,0,0,1,2.43-1.89,2.49,2.49,0,0,1,2.49,2.37A.57.57,0,0,1,189.26,127.34Zm-.3-16.1a5.8,5.8,0,0,1-3.7-1.34,6,6,0,0,1-.95-1,5.74,5.74,0,0,1-1.15-3.47,5.8,5.8,0,0,1,5.8-5.8,5.74,5.74,0,0,1,3.54,1.21,5.94,5.94,0,0,1,1,1,5.81,5.81,0,0,1-4.52,9.43Zm.69,10.77a4.63,4.63,0,0,1,0-.65,4.21,4.21,0,0,1,0-.72,5.8,5.8,0,0,1,11.5,0,5.9,5.9,0,0,1,0,.74q0,.31,0,.63a5.79,5.79,0,0,1-11.52,0Zm8.24-12a2.5,2.5,0,0,1,2.5-2.5,2.47,2.47,0,0,1,2,1,2.38,2.38,0,0,1,.48,1.28,1.34,1.34,0,0,1,0,.2,2.5,2.5,0,0,1-4.42,1.6,2.32,2.32,0,0,1-.55-1.27A1.84,1.84,0,0,1,197.89,110Zm.43,22.27a2.45,2.45,0,0,1,.58-1.25,2.5,2.5,0,0,1,4.39,1.63v.11a2.5,2.5,0,0,1-2.5,2.39,2.5,2.5,0,0,1-2.5-2.5A2.34,2.34,0,0,1,198.32,132.3ZM187.41,87.41a36.94,36.94,0,0,1,11.1,7.53L197,96.4a34.91,34.91,0,0,0-10.41-7.06Zm-3.18,3.7h.17a2.35,2.35,0,0,1,1.29.46,2.5,2.5,0,0,1-1.85,4.5,2.43,2.43,0,0,1-1.25-.59,2.5,2.5,0,0,1,1.64-4.38Zm-5.68,13.43.3,0a2.52,2.52,0,0,1,2.21,2.48,2.51,2.51,0,0,1-2.51,2.51l-.26,0A2.44,2.44,0,0,1,177,109a2.5,2.5,0,0,1,1.53-4.47Zm-2.63,7.12-2.4,5.82a1,1,0,0,0-.22,0l-.09-6.29A10.17,10.17,0,0,1,175.92,111.66Zm-3.23,7.76a1.94,1.94,0,1,1-1.94,1.94A1.93,1.93,0,0,1,172.69,119.42Zm-.57,12.16a10.32,10.32,0,0,1-2.72-.52l2.41-5.83.22,0Zm-3-19.84a10.26,10.26,0,0,1,2.66-.58l.09,6.29-.2,0Zm1.19,12.85a1.08,1.08,0,0,0,.18.11l-2.41,5.83a10.18,10.18,0,0,1-2.26-1.52ZM169,135.65a2.49,2.49,0,0,1-2.5,2.5,2.49,2.49,0,0,1-2.5-2.5,2.49,2.49,0,0,1,4.26-1.76A2.43,2.43,0,0,1,169,135.65Zm.33-12.19a1.19,1.19,0,0,0,.09.15L164.91,128a9.59,9.59,0,0,1-1.45-2.21Zm-.54-1.41a.78.78,0,0,0,0,.14l-5.85,2.36a10.25,10.25,0,0,1-.48-2.5Zm-10.56,2.61a2.52,2.52,0,0,1,2.49,2.29,1.48,1.48,0,0,1,0,.21,2.5,2.5,0,0,1-5,.32c0-.1,0-.21,0-.32A2.5,2.5,0,0,1,158.2,124.66Zm-1.83,6.8a5.79,5.79,0,0,1,3.7,1.33,5.93,5.93,0,0,1,.94,1,5.8,5.8,0,0,1-8.18,8.07,6.5,6.5,0,0,1-1-1,5.81,5.81,0,0,1,4.53-9.43Zm1.49,23.95a37.18,37.18,0,0,1-11.19-7.49l1.5-1.48a34.89,34.89,0,0,0,10.5,7Zm.79-5.92a2.5,2.5,0,0,1,2.51-2.49h.17a2.57,2.57,0,0,1,1.3.48,2.49,2.49,0,0,1-1.47,4.51,1.54,1.54,0,0,1-.38,0,2.42,2.42,0,0,1-1.25-.58A2.45,2.45,0,0,1,158.65,149.49Zm.48,6.44.81-2a34.74,34.74,0,0,0,12.53,2.33l0,2.11A37.1,37.1,0,0,1,159.13,155.93Zm14.63-6a6.28,6.28,0,0,1-1.24.13h-.14a5.8,5.8,0,0,1-.16-11.59h.3a5.39,5.39,0,0,1,1.07.1,5.8,5.8,0,0,1,.17,11.36Zm.11,8.48,0-2.1a34.71,34.71,0,0,0,12.29-2.73l.85,1.93A37,37,0,0,1,173.87,158.39Zm12.48-7.75a2.47,2.47,0,0,1-1.25.56,2.19,2.19,0,0,1-.36,0,2.5,2.5,0,0,1-1.59-4.43,2.44,2.44,0,0,1,1.27-.55,1.67,1.67,0,0,1,.32,0,2.5,2.5,0,0,1,1.61,4.41Zm1.9,4.29L187.4,153a35.33,35.33,0,0,0,10-7.08l1.52,1.45A37.13,37.13,0,0,1,188.25,154.93Zm11.62-8.55-1.53-1.46a34.86,34.86,0,0,0,6.44-10.06l2,.78A37.3,37.3,0,0,1,199.87,146.38Zm7.36-12-1.95-.78a34.85,34.85,0,0,0,2.2-11.61h2.09A36.94,36.94,0,0,1,207.23,134.37Zm.24-13.76a34.73,34.73,0,0,0-2.27-11.71l1.94-.79a36.94,36.94,0,0,1,2.43,12.49Z"/><path fill="url(#b)" d="M113.93,46.74a1.48,1.48,0,0,0,.6-1.51,1.51,1.51,0,0,0-1.27-1l-2.13-.46a.74.74,0,0,1-.58-.39.71.71,0,0,1,.25-.65l1.44-1.63a1.49,1.49,0,0,0,.43-1.56,1.45,1.45,0,0,0-1.36-.87l-2.16-.24a.76.76,0,0,1-.63-.32.78.78,0,0,1,.18-.68L110,35.66a1.36,1.36,0,0,0-1.18-2.33h-2.18a.74.74,0,0,1-.65-.25.72.72,0,0,1,.1-.7l1.08-1.89a1.36,1.36,0,0,0-1.42-2.18l-2.16.21a.75.75,0,0,1-.68-.18.73.73,0,0,1,0-.71l.86-2a1.47,1.47,0,0,0-.06-1.61,1.49,1.49,0,0,0-1.57-.42l-2.14.45a.75.75,0,0,1-.69-.11.77.77,0,0,1,0-.7l.67-2.08a1.37,1.37,0,0,0-1.85-1.85L96,20a.74.74,0,0,1-.7,0,.75.75,0,0,1-.12-.69l.45-2.13a1.5,1.5,0,0,0-.41-1.57,1.47,1.47,0,0,0-1.61-.07l-2,.87a.73.73,0,0,1-.71,0,.79.79,0,0,1-.18-.68L91,13.54a1.36,1.36,0,0,0-2.18-1.42l-1.9,1.08a.74.74,0,0,1-.69.11.74.74,0,0,1-.25-.66l0-2.18A1.47,1.47,0,0,0,85.21,9a1.49,1.49,0,0,0-1.6.26l-1.77,1.27a.71.71,0,0,1-.67.18.73.73,0,0,1-.33-.62L80.6,8a1.46,1.46,0,0,0-.86-1.36A1.5,1.5,0,0,0,78.17,7L76.55,8.46c-.25.22-.48.32-.66.26a.76.76,0,0,1-.39-.59L75,6a1.37,1.37,0,0,0-2.52-.67l-1.46,1.6a.72.72,0,0,1-.63.33c-.18,0-.34-.24-.44-.55l-.68-2.07a1.37,1.37,0,0,0-2.58-.4L65.44,6c-.19.26-.4.41-.58.39s-.37-.21-.5-.5l-.9-2a1.5,1.5,0,0,0-1.25-1,1.54,1.54,0,0,0-1.36.9L59.76,5.64c-.33.55-.77.56-1.1,0l-1.1-1.88A1.35,1.35,0,0,0,55,3.89l-.9,2c-.13.29-.31.48-.5.5S53.17,6.25,53,6L51.69,4.24a1.36,1.36,0,0,0-2.57.4l-.68,2.07c-.11.31-.27.51-.45.55a.79.79,0,0,1-.63-.33L45.9,5.33A1.36,1.36,0,0,0,43.39,6l-.48,2.13c-.06.31-.2.54-.38.59s-.41,0-.65-.26L40.25,7A1.36,1.36,0,0,0,37.82,8l-.24,2.17a.73.73,0,0,1-.32.62.72.72,0,0,1-.68-.18L34.82,9.29a1.37,1.37,0,0,0-2.33,1.18v2.18a.77.77,0,0,1-.25.66.76.76,0,0,1-.7-.11l-1.89-1.08A1.53,1.53,0,0,0,28,12a1.51,1.51,0,0,0-.56,1.52l.21,2.17a.76.76,0,0,1-.18.68.73.73,0,0,1-.71,0l-2-.87a1.47,1.47,0,0,0-1.61.07,1.5,1.5,0,0,0-.42,1.57l.44,2.13a.75.75,0,0,1-.1.69.75.75,0,0,1-.7,0l-2.08-.67a1.37,1.37,0,0,0-1.84,1.85l.66,2.08a.72.72,0,0,1,0,.69.73.73,0,0,1-.7.12l-2.12-.45a1.37,1.37,0,0,0-1.65,2l.88,2a.78.78,0,0,1,0,.71.8.8,0,0,1-.69.18L12.7,28.3a1.46,1.46,0,0,0-1.51.57,1.49,1.49,0,0,0,.09,1.61l1.07,1.89a.74.74,0,0,1,.12.7.78.78,0,0,1-.65.25H9.63a1.37,1.37,0,0,0-1.18,2.33l1.27,1.76c.19.27.26.51.18.68a.77.77,0,0,1-.62.32l-2.17.24a1.37,1.37,0,0,0-.93,2.43l1.45,1.63a.74.74,0,0,1,.25.65.78.78,0,0,1-.59.39l-2.13.46a1.49,1.49,0,0,0-1.26,1,1.47,1.47,0,0,0,.59,1.51L6.1,48.2a.74.74,0,0,1,.32.63c0,.18-.24.34-.55.45L3.8,50A1.48,1.48,0,0,0,2.65,51.1a1.5,1.5,0,0,0,.75,1.43l1.75,1.29a.74.74,0,0,1,.38.59c0,.19-.2.37-.5.49l-2,.91a1.49,1.49,0,0,0-1,1.25,1.52,1.52,0,0,0,.9,1.35L4.79,59.5c.28.17.45.37.45.55s-.17.39-.45.55L2.92,61.7a1.36,1.36,0,0,0,.13,2.6l2,.9c.3.13.49.31.5.5s-.12.39-.38.58L3.4,67.57a1.37,1.37,0,0,0,.4,2.58l2.07.68c.31.1.51.26.55.45s-.08.4-.32.62L4.49,73.36a1.37,1.37,0,0,0,.67,2.52l2.13.47a.75.75,0,0,1,.59.38.74.74,0,0,1-.25.65L6.18,79a1.45,1.45,0,0,0-.42,1.57,1.43,1.43,0,0,0,1.35.86l2.17.24A.77.77,0,0,1,9.9,82a.72.72,0,0,1-.18.68L8.45,84.45a1.36,1.36,0,0,0,1.18,2.32h2.18a.79.79,0,0,1,.66.26.74.74,0,0,1-.11.69l-1.08,1.89a1.52,1.52,0,0,0-.09,1.63,1.46,1.46,0,0,0,1.51.56l2.16-.22a.83.83,0,0,1,.69.18.78.78,0,0,1,0,.71l-.88,2a1.37,1.37,0,0,0,1.65,2l2.12-.44a.76.76,0,0,1,.7.11.74.74,0,0,1,0,.7l-.66,2.07a1.5,1.5,0,0,0,.24,1.61,1.48,1.48,0,0,0,1.6.24l2.08-.67a.78.78,0,0,1,.7,0,.76.76,0,0,1,.1.7L22.76,103a1.37,1.37,0,0,0,2,1.64l2-.88a.81.81,0,0,1,.71,0,.74.74,0,0,1,.18.67l-.21,2.17a1.48,1.48,0,0,0,.56,1.52,1.51,1.51,0,0,0,1.62-.1l1.89-1.07a.7.7,0,0,1,.7-.11.75.75,0,0,1,.25.65v2.18a1.37,1.37,0,0,0,2.33,1.18l1.76-1.27a.72.72,0,0,1,.68-.18.76.76,0,0,1,.32.62l.24,2.17a1.36,1.36,0,0,0,2.43.93l1.63-1.44a.55.55,0,0,1,1,.33l.48,2.13a1.46,1.46,0,0,0,1,1.26,1.45,1.45,0,0,0,1.5-.59l1.46-1.6a.74.74,0,0,1,.63-.32c.18,0,.34.23.45.55l.68,2.06a1.36,1.36,0,0,0,2.57.41L53,114.11a.86.86,0,0,1,.35-.32l-.33-.52a5.08,5.08,0,0,1-.07-5.29c.46-.79.82-1.4.73-5l0-2.3a39.74,39.74,0,0,1-10-2.69,40.9,40.9,0,0,1-10.08-6,1.81,1.81,0,0,1-.7-1.43,1.88,1.88,0,0,1,.55-1.31L43,79.65l-3.53-2.81-9.3,9.3A1.84,1.84,0,0,1,27.46,86,40.59,40.59,0,0,1,18.4,64.34a1.28,1.28,0,0,1,0-.19,1.84,1.84,0,0,1,1.84-1.85H34.87a24.07,24.07,0,0,0,2.18,8.07,5.06,5.06,0,0,1,3-3,20.06,20.06,0,0,1-1.22-5.08H49.58a1.84,1.84,0,0,1,1.3,3.15l-.89.89,17.29-1.5A1.85,1.85,0,0,1,69,62.3h6.79a42.47,42.47,0,0,0-.47-4.49h-6A1.85,1.85,0,0,1,68,54.65l5.29-5.29a5,5,0,0,1,2.15-2.92l1.54-1a5,5,0,0,1,1.33-.6,2.77,2.77,0,0,0-.22-.29L88.46,34.21a1.84,1.84,0,0,1,2.74.15h0A40.66,40.66,0,0,1,100,55.77a1.28,1.28,0,0,1,0,.19,1.85,1.85,0,0,1-1.83,1.85H92.52a7.46,7.46,0,0,1-.73,1.72l-.08.12a7.59,7.59,0,0,0-.45,2.65h4.66c5.31-.59,9.6-1.18,13.1-1.81l-2.54-2.07a5,5,0,0,1,2.89-8.92l3.3-.19-.11,0c-.31-.11-.51-.27-.55-.45a.74.74,0,0,1,.32-.63ZM33.33,28.22a41.07,41.07,0,0,1,10.15-6.08,40.51,40.51,0,0,1,11.45-2.91h.19A1.84,1.84,0,0,1,57,21.06V35.72a24.41,24.41,0,0,0-13.42,5.57L33.2,31A1.85,1.85,0,0,1,33.33,28.22Zm1.54,29.59H20.23a1.84,1.84,0,0,1-1.83-2,40.69,40.69,0,0,1,8.9-21.49,1.85,1.85,0,0,1,1.44-.68,1.79,1.79,0,0,1,1.29.54L40.37,44.48A24.26,24.26,0,0,0,34.87,57.81Zm14.38,0H38.86A20.29,20.29,0,0,1,43.19,47.3l7.36,7.35A1.85,1.85,0,0,1,49.25,57.81Zm4.56-6.24-7.45-7.46A20.36,20.36,0,0,1,57,39.71V50.27A1.84,1.84,0,0,1,53.81,51.57Zm5.4,12.25A3.77,3.77,0,1,1,63,60.05,3.76,3.76,0,0,1,59.21,63.82Zm5.4-12.1a1.84,1.84,0,0,1-3.15-1.3V39.71a20.21,20.21,0,0,1,10.68,4.48ZM85.31,31,75,41.37a24.26,24.26,0,0,0-13.5-5.65V21.06a1.83,1.83,0,0,1,2-1.83A40.74,40.74,0,0,1,85.17,28.3a1.8,1.8,0,0,1,.67,1.42A1.86,1.86,0,0,1,85.31,31Z"/><path fill="url(#c)" d="M141.16,154.6a1.14,1.14,0,0,1-.24-1.15,1.1,1.1,0,0,1,.24-.41l.9-1a.55.55,0,0,0,.15-.45.62.62,0,0,0-.23-.43l-1-.8a1.17,1.17,0,0,1-.27-1.54l.71-1.13a.6.6,0,0,0,.07-.47.59.59,0,0,0-.3-.37l-.29-.15a.81.81,0,0,1-.61-.31l0,0-.26-.14a1.15,1.15,0,0,1-.53-1.46l0-.09a1,1,0,0,1-.56-.18,4.6,4.6,0,0,1-1.57,1.21,21.82,21.82,0,0,1,1.51,7.18h-1.32a20.42,20.42,0,0,0-1.45-6.75,2.63,2.63,0,0,1-.39.06l-4.26.51a16,16,0,0,1,1.62,6.45c0,.22,0,.44,0,.66s0,.44,0,.66a16,16,0,0,1-3.57,9.51l-.19.24-.22-.21a13.88,13.88,0,0,1-4.39-9.18c0-.32,0-.66,0-1s0-.7,0-1a14,14,0,0,1,1.55-5.47l-11.65,1.4a3.82,3.82,0,0,1-.61,0,5.08,5.08,0,0,1-3.89-1.81l-7.16-8.46a20.53,20.53,0,0,0-6.75,14.39H94.84a21.94,21.94,0,0,1,7.23-15.4l-.34-.4-1.19-1.4-1.24-.05a.6.6,0,0,0-.63.62l.06,1.33a1.17,1.17,0,0,1-1,1.2l-1.31.17a.66.66,0,0,0-.42.27.57.57,0,0,0-.09.46l.29,1.29a1.18,1.18,0,0,1-.79,1.36l-1.26.4a.57.57,0,0,0-.36.32.62.62,0,0,0,0,.48l.5,1.23a1.14,1.14,0,0,1-.54,1.46l-1.17.63a.56.56,0,0,0-.3.37.6.6,0,0,0,.07.47l.71,1.12a1.16,1.16,0,0,1-.26,1.54l-1.06.81a.61.61,0,0,0-.08.88l.89,1a1,1,0,0,1,.25.45,1.05,1.05,0,0,1,0,.7,1,1,0,0,1-.25.42l-.89,1a.63.63,0,0,0-.15.46.6.6,0,0,0,.23.42l1,.8a1.17,1.17,0,0,1,.27,1.55l-.71,1.12a.61.61,0,0,0-.07.48.58.58,0,0,0,.3.37l1.17.62a1.14,1.14,0,0,1,.54,1.46l-.5,1.23a.61.61,0,0,0,0,.48.57.57,0,0,0,.36.32l1.26.4a1.18,1.18,0,0,1,.79,1.36L95.9,168a.57.57,0,0,0,.09.46.61.61,0,0,0,.42.26l1.31.17a1.17,1.17,0,0,1,1,1.2l-.06,1.33a.64.64,0,0,0,.18.45.66.66,0,0,0,.45.17l1.32-.05a1.15,1.15,0,0,1,1.2,1l.18,1.3a.58.58,0,0,0,.25.42.57.57,0,0,0,.47.09l1.29-.28a1.1,1.1,0,0,1,.51,0,1.2,1.2,0,0,1,.61.36,1.18,1.18,0,0,1,.24.42l.41,1.27a.61.61,0,0,0,.3.37.69.69,0,0,0,.49,0l1.23-.5a1.16,1.16,0,0,1,1.47.53l.61,1.18a.63.63,0,0,0,.38.3.61.61,0,0,0,.48-.07l1.11-.71a1.16,1.16,0,0,1,1.55.27l.81,1a.59.59,0,0,0,.42.24.59.59,0,0,0,.46-.16l1-.89a1.14,1.14,0,0,1,1.56,0l1,.89a.59.59,0,0,0,.46.16.61.61,0,0,0,.42-.23l.81-1.06a1.16,1.16,0,0,1,1.54-.26l1.12.71a.62.62,0,0,0,.48.07.63.63,0,0,0,.38-.3l.61-1.18a1.16,1.16,0,0,1,1.47-.53l1.22.5a.69.69,0,0,0,.49,0,.63.63,0,0,0,.31-.37l.41-1.27a1,1,0,0,1,.25-.43,1.17,1.17,0,0,1,.61-.35,1,1,0,0,1,.49,0l1.3.28a.56.56,0,0,0,.47-.09.58.58,0,0,0,.25-.41l.17-1.32a1.17,1.17,0,0,1,1.21-1l1.32.05a.6.6,0,0,0,.45-.17.64.64,0,0,0,.18-.45L135,170a1.17,1.17,0,0,1,1-1.2l1.32-.17a.58.58,0,0,0,.5-.72l-.28-1.3a1.19,1.19,0,0,1,.79-1.36l1.26-.4a.57.57,0,0,0,.36-.32.54.54,0,0,0,0-.48l-.5-1.23a1.15,1.15,0,0,1,.53-1.46l1.18-.62a.6.6,0,0,0,.23-.85l-.71-1.12a1.17,1.17,0,0,1,.27-1.54l1-.81a.6.6,0,0,0,.23-.43.57.57,0,0,0-.15-.45Zm-28.85-2a4.83,4.83,0,0,1,1.19-2.06,4.65,4.65,0,0,1,2.16-1.23,4.37,4.37,0,0,1,2.38,0,4.52,4.52,0,0,1,2.15,1.23,4.64,4.64,0,0,1,1.2,2.06,4.83,4.83,0,0,1,.17,1.25,4.75,4.75,0,0,1-.17,1.24,4.73,4.73,0,0,1-3.34,3.31,4.87,4.87,0,0,1-2.4,0,4.73,4.73,0,0,1-3.34-3.31,4.74,4.74,0,0,1-.16-1.24A4.82,4.82,0,0,1,112.31,152.57ZM105,172.42c-.44-.27-.88-.58-1.35-.92A22.51,22.51,0,0,1,99.17,167a21.84,21.84,0,0,1-4.34-12.41h1.33a20.6,20.6,0,0,0,9.63,16.75Zm-.42-8.4-.22.2-.19-.24a16,16,0,0,1-3.56-9.51c0-.21,0-.43,0-.65s0-.44,0-.66a16,16,0,0,1,3.57-9.5l.19-.23.22.19A13.88,13.88,0,0,1,109,152.8c0,.32,0,.65,0,1s0,.7,0,1A13.85,13.85,0,0,1,104.62,164Zm12.23,11.83a21.89,21.89,0,0,1-10.36-2.59l.75-1.1a20.73,20.73,0,0,0,19.29,0l.68,1.15A22,22,0,0,1,116.85,175.85ZM127,166.46c-.51.4-1,.75-1.5,1.07a12.5,12.5,0,0,1-1.14.65,16.17,16.17,0,0,1-15.06,0,11.52,11.52,0,0,1-1.15-.66,15,15,0,0,1-1.49-1.06l-.23-.2.2-.21a13.57,13.57,0,0,1,3.46-2.7,13.74,13.74,0,0,1,2.75-1.16,14.07,14.07,0,0,1,8,0,13,13,0,0,1,2.75,1.16,13.57,13.57,0,0,1,3.46,2.7l.2.22Zm7.51.52A22.51,22.51,0,0,1,130,171.5c-.47.34-.91.65-1.35.93l-.68-1.15a20.6,20.6,0,0,0,9.56-16.71h1.32A21.8,21.8,0,0,1,134.53,167Z"/><path fill="url(#d)" d="M176,28.78l-.1,2.7A8.66,8.66,0,0,1,169.54,26c-1,4.37-5.48,6.43-5.48,6.43l-.47-2.59-2.6.73a8.62,8.62,0,0,1,3.52-7.95c-4.66.57-8.16-3.2-8.16-3.2l2.32-1.25L157.17,16a8.66,8.66,0,0,1,8.54.8c-1.76-4.16.63-8.47.63-8.47l1.91,1.82L169.92,8a8.65,8.65,0,0,1,1.91,8.26c3.41-3,8.27-2,8.27-2L179,16.57l2.53.94a8.64,8.64,0,0,1-7.38,4.37c3.92,2.32,4.51,7.25,4.51,7.25Z"/><path fill="url(#e)" d="M188.47,41.86a4.23,4.23,0,0,0-.94-.1,5,5,0,0,0-2.24.53c-.15.07-2.27,1-13.3,2.34l.49-.94-1.8-.73a6.21,6.21,0,0,1,5.5-3c-2.88-1.73-3.2-5.4-3.2-5.4l1.86.31L175,33a6.2,6.2,0,0,1,4.47,4.22,7.65,7.65,0,0,1,4.1-4.51l.27,1.87,1.88-.46a6.19,6.19,0,0,1-2.56,5.51A7.44,7.44,0,0,1,188.47,41.86Z"/><path fill="url(#f)" d="M47.24,168.6l-1.13,1.74a6.64,6.64,0,0,1-2.06-6.1c-2.4,2.48-6.14,2.11-6.14,2.11l.7-1.9-2-.53A6.63,6.63,0,0,1,42,160c-3.29-1.44-4.13-5.3-4.13-5.3l2,.08-.11-2.07a6.62,6.62,0,0,1,5.32,3.87c.47-3.44,3.74-5.35,3.74-5.35l.55,1.95,1.93-.74a6.63,6.63,0,0,1-2,6.2c3.43-.64,6.26,1.9,6.26,1.9L54,161.7l1.3,1.61a6.6,6.6,0,0,1-6.58,0c1.67,3.07.14,6.56.14,6.56Z"/><path fill="url(#g)" d="M58.28,183.64l-1.6.49a5.35,5.35,0,0,1,1.91-4.83,6.58,6.58,0,0,1-4.87-1.9l1.42-.8-1-1.37a5.35,5.35,0,0,1,5.36.44,6.51,6.51,0,0,1,.22-5.41l1.2,1.11L62,170a5.33,5.33,0,0,1,1.26,5.15,6.6,6.6,0,0,1,5.08-1.34l-.68,1.48,1.58.55a5.35,5.35,0,0,1-4.44,2.79,6.55,6.55,0,0,1,2.86,4.42L66,182.91l0,1.66a5.34,5.34,0,0,1-4-3.43,6.57,6.57,0,0,1-3.33,4.1Z"/><path fill="url(#h)" d="M72.52,154c3.14,3.74,2,8.94,2,8.94L72,161.66l-1.07,2.69a9.25,9.25,0,0,1-4.48-7.78c-2.62,4-7.84,4.54-7.84,4.54l.45-2.78-2.88-.19a9.25,9.25,0,0,1,6.38-6.79c-4.91-1.07-7.1-6.13-7.1-6.13l2.79-.43-.72-2.8a9.23,9.23,0,0,1,8.34,3.85c-.29-4.84,3.66-8.34,3.66-8.34L70.8,140l2.44-1.54a9.27,9.27,0,0,1-1,9A8.52,8.52,0,0,1,74,147a5.1,5.1,0,0,0,.58,3.61l2.2,3.8A8.86,8.86,0,0,1,72.52,154Z"/></svg>
